<svg id="color" enable-background="new 0 0 24 24" height="512" viewBox="0 0 24 24" width="512" xmlns="http://www.w3.org/2000/svg"><path d="m12.95 21.15-2-1.5c-.499-.371-1.2-.014-1.2.6v.686c-.614-.034-1.214-.079-1.783-.142-4.875-.502-6.467-1.69-6.467-2.044 0-.414-.336-.75-.75-.75s-.75.336-.75.75c0 2.466 5.464 3.294 7.808 3.536.62.068 1.27.119 1.942.154v.81c0 .618.707.968 1.2.6l2-1.5c.188-.142.3-.364.3-.6s-.111-.458-.3-.6z" fill="#607d8b"/><path d="m20 5.75c-.553 0-1-.448-1-1v-1.75c0-.551-.449-1-1-1h-12c-.551 0-1 .449-1 1v1.75c0 .552-.447 1-1 1s-1-.448-1-1v-1.75c0-1.654 1.346-3 3-3h12c1.654 0 3 1.346 3 3v1.75c0 .552-.447 1-1 1z" fill="#607d8b"/><path d="m21.25 17h-6.08c-.322 0-.609-.207-.711-.513l-.439-1.317c-.034-.101-.129-.17-.237-.17h-3.566c-.107 0-.203.069-.236.171l-.439 1.316c-.103.306-.39.513-.712.513h-6.08c-1.517 0-2.75-1.233-2.75-2.75v-7.5c0-1.517 1.233-2.75 2.75-2.75h18.5c1.517 0 2.75 1.233 2.75 2.75v7.5c0 1.517-1.233 2.75-2.75 2.75z" fill="#00bcd4"/><path d="m.75 18c-.414 0-.75.336-.75.75 0 2.466 5.464 3.294 7.808 3.536.62.068 1.27.119 1.942.154v.81c0 .444.366.75.754.75.152 0 .307-.047.446-.15l1.05-.787v-2.625l-1.05-.787c-.14-.104-.295-.151-.447-.151-.39 0-.753.309-.753.751v.686c-.614-.034-1.214-.079-1.783-.142-4.875-.503-6.467-1.691-6.467-2.045 0-.414-.336-.75-.75-.75z" fill="#546d79"/><path d="m12 0h-6c-1.654 0-3 1.346-3 3v1h2v-1c0-.551.449-1 1-1h6z" fill="#546d79"/><path d="m12 4h-7-2-.25c-1.517 0-2.75 1.233-2.75 2.75v7.5c0 1.517 1.233 2.75 2.75 2.75h6.08c.322 0 .609-.207.711-.513l.439-1.316c.034-.102.129-.171.237-.171h1.783z" fill="#00a4b9"/><path d="m14.667 21.663c-.035-.413.271-.775.685-.81 5.092-.425 7.148-1.66 7.148-2.103 0-.414.336-.75.75-.75s.75.336.75.75c0 2.604-5.961 3.383-8.523 3.598-.439.03-.777-.29-.81-.685z" fill="#607d8b"/><g fill="#fff"><path d="m11.75 13c-.414 0-.75-.336-.75-.75v-4.5c0-.414.336-.75.75-.75h1.125c1.172 0 2.125.953 2.125 2.125s-.953 2.125-2.125 2.125h-.375v1c0 .414-.336.75-.75.75zm.75-3.25h.375c.345 0 .625-.28.625-.625s-.28-.625-.625-.625h-.375z"/><path d="m13.72 12.78-1.75-1.75c-.293-.293-.293-.768 0-1.061s.768-.293 1.061 0l1.75 1.75c.293.293.293.768 0 1.061-.294.293-.768.293-1.061 0z"/><path d="m7 13c-.322 0-.609-.207-.711-.513l-1.5-4.5c-.131-.393.08-.818.474-.949.393-.13.818.082.948.474l.789 2.366.789-2.366c.13-.393.554-.606.948-.474.394.131.604.556.474.949l-1.5 4.5c-.102.306-.389.513-.711.513z"/></g><path d="m11.942 9.999h-.942v2.251c0 .414.336.75.75.75s.75-.336.75-.75v-.689l-.53-.53c-.284-.284-.293-.737-.028-1.032zm2.87 0h-1.752l.932.932c.358-.221.645-.546.82-.932z" fill="#dedede"/><path d="m13.06 9.999h-1.118c-.264.295-.255.748.028 1.031l.53.53 1.22 1.22c.146.146.338.22.53.22s.384-.073.53-.22c.293-.293.293-.768 0-1.061l-.788-.788z" fill="#dedede"/><path d="m8.54 9.999h-3.08l.829 2.488c.102.306.389.513.711.513s.609-.207.711-.513z" fill="#dedede"/><path d="m20 8.5c0 .829-.672 1.5-1.5 1.5s-1.5-.671-1.5-1.5.672-1.5 1.5-1.5 1.5.671 1.5 1.5z" fill="#fff"/><path d="m18.5 7c-.828 0-1.5.671-1.5 1.5s.672 1.5 1.5 1.5z" fill="#dedede"/></svg>